<svg width="32" height="33" viewBox="0 0 32 33" fill="none" xmlns="http://www.w3.org/2000/svg">
<path d="M17.4 27.835H5.375C5.1817 27.835 5.025 27.6783 5.025 27.485V17.46C5.025 17.2667 4.8683 17.11 4.675 17.11H2.90567C2.58572 17.11 2.4335 16.7161 2.67031 16.501L15.7134 4.65001C15.8474 4.52825 16.0521 4.5288 16.1855 4.65128L21.1882 9.24609C21.4127 9.4522 21.775 9.29302 21.775 8.98832V7.26C21.775 7.0667 21.9317 6.91 22.125 6.91H24.375C24.5683 6.91 24.725 7.0667 24.725 7.26V11.978C24.725 12.0779 24.7677 12.173 24.8422 12.2394L29.975 16.81" stroke="#E89141" stroke-width="1.5" stroke-linecap="round"/>
<path d="M9 17.1846L13.5911 13.9018C13.7309 13.8019 13.9188 13.8024 14.058 13.903L18.6 17.1846" stroke="#E89141" stroke-width="1.5" stroke-linecap="round"/>
<path d="M22.7501 16.7346L19.3501 20.2596M19.3501 20.2596H24.8001M19.3501 20.2596V22.4096M19.3501 22.4096H21.8501L24.1751 24.4346M19.3501 22.4096V24.5096L20.6251 26.0596" stroke="#E89141" stroke-width="1.5"/>
<circle cx="23.7749" cy="15.835" r="1.375" stroke="#E89141" stroke-width="1.5"/>
<circle cx="26.1748" cy="20.135" r="1.375" stroke="#E89141" stroke-width="1.5"/>
<circle cx="25.3252" cy="25.085" r="1.375" stroke="#E89141" stroke-width="1.5"/>
<circle cx="21.3252" cy="27.185" r="1.375" stroke="#E89141" stroke-width="1.5"/>
<rect x="11" y="18.56" width="1.75" height="1.75" rx="0.5" fill="black" stroke="black"/>
<rect x="11" y="22.2104" width="1.75" height="1.75" rx="0.5" fill="black" stroke="black"/>
<rect x="14.75" y="22.2104" width="1.75" height="1.75" rx="0.5" fill="black" stroke="black"/>
<rect x="14.75" y="18.56" width="1.75" height="1.75" rx="0.5" fill="black" stroke="black"/>
</svg>
